<svg width="16" height="16" viewBox="0 0 16 16" fill="none" xmlns="http://www.w3.org/2000/svg">
<path fill-rule="evenodd" clip-rule="evenodd" d="M0 8C0 3.58172 3.58172 0 8 0C12.4183 0 16 3.58172 16 8C16 12.4183 12.4183 16 8 16C3.58172 16 0 12.4183 0 8ZM12.666 6.33022C12.9495 6.04559 12.9484 5.58511 12.6638 5.3017L12.1484 4.78855C11.8638 4.50515 11.4033 4.50614 11.1199 4.79077L6.9224 9.0064L4.50708 6.62465C4.22108 6.34267 3.7606 6.34589 3.47858 6.63193L2.96794 7.14975C2.68592 7.43571 2.68915 7.89622 2.97515 8.17826L6.42118 11.5763C6.70618 11.8574 7.16473 11.8553 7.4472 11.5716L12.666 6.33022Z" fill="#00C858"/>
</svg>
