<svg width="21" height="21" viewBox="0 0 21 21" fill="none" xmlns="http://www.w3.org/2000/svg">
<path fill-rule="evenodd" clip-rule="evenodd" d="M10.418 0C11.2399 0 11.9062 0.671573 11.9062 1.5V9H19.3477C20.1696 9 20.8359 9.67157 20.8359 10.5C20.8359 11.3284 20.1696 12 19.3477 12H11.9062V19.5C11.9062 20.3284 11.2399 21 10.418 21C9.59601 21 8.92969 20.3284 8.92969 19.5V12H1.48828C0.666326 12 0 11.3284 0 10.5C0 9.67157 0.666326 9 1.48828 9H8.92969V1.5C8.92969 0.671573 9.59601 0 10.418 0Z" fill="#5D666A"/>
</svg>
