<svg width="10" height="10" viewBox="0 0 10 10" fill="none" xmlns="http://www.w3.org/2000/svg">
<path fill-rule="evenodd" clip-rule="evenodd" d="M5 0C5.39449 0 5.71429 0.319797 5.71429 0.714286V4.28571H9.28572C9.6802 4.28571 10 4.60551 10 5C10 5.39449 9.6802 5.71429 9.28572 5.71429H5.71429V9.28572C5.71429 9.6802 5.39449 10 5 10C4.60551 10 4.28571 9.6802 4.28571 9.28572V5.71429H0.714286C0.319797 5.71429 0 5.39449 0 5C0 4.60551 0.319797 4.28571 0.714286 4.28571H4.28571V0.714286C4.28571 0.319797 4.60551 0 5 0Z" fill="#CCE3FF"/>
</svg>
