<svg width="24" height="31" viewBox="0 0 24 31" fill="none" xmlns="http://www.w3.org/2000/svg">
<mask id="mask0_1_292" style="mask-type:alpha" maskUnits="userSpaceOnUse" x="0" y="0" width="24" height="31">
<rect x="0.792511" y="0.315918" width="23.1694" height="30.1053" rx="11.5847" fill="#D9D9D9"/>
</mask>
<g mask="url(#mask0_1_292)">
<path d="M10.0804 20.515C8.10321 20.515 6.42887 19.7636 5.05735 18.2609C3.6858 16.7581 3.00003 14.9236 3.00003 12.7573C3.00003 10.5909 3.6858 8.7564 5.05735 7.25363C6.42887 5.75089 8.10321 4.99951 10.0804 4.99951C12.0575 4.99951 13.7319 5.75089 15.1034 7.25363C16.4749 8.7564 17.1607 10.5909 17.1607 12.7573C17.1607 13.6631 17.0219 14.5284 16.7443 15.3529C16.2908 16.7004 16.2851 18.2769 17.2021 19.3634L19.7539 22.387C19.9142 22.5627 19.9962 22.7834 19.9999 23.0494C20.0036 23.3152 19.9216 23.5401 19.7539 23.7239C19.5862 23.9076 19.3828 23.9995 19.1438 23.9995C18.9049 23.9995 18.7015 23.9076 18.5338 23.7239L15.9342 20.6437C15.1027 19.6585 13.6156 19.5992 12.416 20.071C11.6634 20.367 10.8849 20.515 10.0804 20.515ZM10.0804 18.6122C11.5721 18.6122 12.8357 18.045 13.871 16.9106C14.9064 15.7762 15.4241 14.3918 15.4241 12.7573C15.4241 11.1228 14.9064 9.7383 13.871 8.6039C12.8357 7.4695 11.5721 6.9023 10.0804 6.9023C8.58858 6.9023 7.32502 7.4695 6.28968 8.6039C5.25436 9.7383 4.7367 11.1228 4.7367 12.7573C4.7367 14.3918 5.25436 15.7762 6.28968 16.9106C7.32502 18.045 8.58858 18.6122 10.0804 18.6122Z" fill="#87929F"/>
</g>
</svg>
